<?xml version="1.0" encoding="UTF-8" standalone="no"?>
<!-- Created with Inkscape (http://www.inkscape.org/) -->

<svg
   xmlns:dc="http://purl.org/dc/elements/1.1/"
   xmlns:cc="http://creativecommons.org/ns#"
   xmlns:rdf="http://www.w3.org/1999/02/22-rdf-syntax-ns#"
   xmlns:svg="http://www.w3.org/2000/svg"
   xmlns="http://www.w3.org/2000/svg"
   xmlns:sodipodi="http://sodipodi.sourceforge.net/DTD/sodipodi-0.dtd"
   xmlns:inkscape="http://www.inkscape.org/namespaces/inkscape"
   width="30.745411mm"
   height="19.198828mm"
   viewBox="0 0 108.94043 68.027342"
   id="svg2"
   version="1.1"
   inkscape:version="0.91 r13725"
   sodipodi:docname="db.svg">
  <defs
     id="defs4" />
  <sodipodi:namedview
     id="base"
     pagecolor="#ffffff"
     bordercolor="#666666"
     borderopacity="1.0"
     inkscape:pageopacity="0.0"
     inkscape:pageshadow="2"
     inkscape:zoom="1"
     inkscape:cx="77.253906"
     inkscape:cy="4.7340849"
     inkscape:document-units="px"
     inkscape:current-layer="layer1"
     showgrid="false"
     fit-margin-top="0"
     fit-margin-left="0"
     fit-margin-right="0"
     fit-margin-bottom="0"
     inkscape:window-width="1280"
     inkscape:window-height="751"
     inkscape:window-x="0"
     inkscape:window-y="1"
     inkscape:window-maximized="1" />
  <metadata
     id="metadata7">
    <rdf:RDF>
      <cc:Work
         rdf:about="">
        <dc:format>image/svg+xml</dc:format>
        <dc:type
           rdf:resource="http://purl.org/dc/dcmitype/StillImage" />
        <dc:title></dc:title>
      </cc:Work>
    </rdf:RDF>
  </metadata>
  <g
     inkscape:label="Layer 1"
     inkscape:groupmode="layer"
     id="layer1"
     transform="translate(-152.74609,-469.06895)">
    <g
       style="font-style:normal;font-variant:normal;font-weight:normal;font-stretch:normal;font-size:40px;line-height:125%;font-family:'Permanent Marker';-inkscape-font-specification:'Permanent Marker';letter-spacing:0px;word-spacing:0px;fill:#000000;fill-opacity:1;stroke:none;stroke-width:1px;stroke-linecap:butt;stroke-linejoin:miter;stroke-opacity:1"
       id="flowRoot3336">
      <path
         d="m 160.04102,536.12949 q -2.54883,-0.61523 -3.95508,-2.02148 -1.31836,-1.49414 -2.02149,-3.42774 -0.61523,-2.02148 -0.8789,-4.39453 -0.17578,-2.37304 -0.43946,-4.92187 0.35157,-1.14258 0.87891,-1.9336 0.61523,-0.79101 0.52734,-2.19726 0.9668,-2.8125 1.75782,-5.44922 0.79101,-2.63672 1.05468,-5.44922 0.52735,-0.79101 1.05469,-1.05469 0.70313,-5.00976 0.17578,-10.2832 -0.52734,-5.27344 -1.75781,-9.75586 0.0879,-0.9668 0.26367,-1.40625 0.17578,-0.52734 0,-0.87891 -0.17578,-0.79101 0.52735,-0.79101 0.70312,0 1.40625,0 0,-1.58203 -0.61524,-3.07617 -0.52734,-1.58203 -1.05469,-3.60352 0.70313,-1.58203 0.9668,-3.07617 0.26367,-1.49414 0.9668,-2.72461 2.8125,0.87891 5.53711,2.02148 2.72461,1.14258 5.36132,2.28516 2.63672,1.05469 5.18555,2.10938 2.54883,0.96679 5.00977,1.58203 3.77929,2.72461 7.73437,5.44922 4.04297,2.63671 7.29492,5.88867 3.33985,3.16406 5.53711,7.29492 2.19727,4.13086 2.54883,9.75586 -0.17578,0.52734 -0.26367,0.87891 -0.0879,0.35156 -0.17578,0.70312 -0.0879,0.35156 -0.0879,0.79102 0,0.43945 0,1.23046 -3.16406,5.53711 -7.99805,9.31641 -4.83398,3.7793 -10.54687,6.67969 -5.71289,2.90039 -11.95313,5.36133 -6.15234,2.37304 -12.04101,5.09765 z m 8.61328,-49.83398 q -0.79102,0 -1.14258,0.35156 1.05469,3.95508 1.58203,7.4707 0.52734,3.51563 0.52734,7.03125 0.0879,3.51563 -0.35156,7.20704 -0.43945,3.6914 -1.23047,7.99804 1.14258,-0.0879 2.02149,-0.43945 0.8789,-0.35156 1.75781,-0.79102 0.9668,-0.43945 1.93359,-0.79101 1.05469,-0.35156 2.37305,-0.43946 0.35156,-0.70312 0.87891,-1.05468 0.61523,-0.43946 1.05468,-0.87891 2.19727,-0.87891 4.39453,-1.8457 2.19727,-0.9668 4.04297,-2.19727 1.84571,-1.23047 3.33985,-2.8125 1.49414,-1.58203 2.46093,-3.77929 -0.70312,-1.31836 -1.75781,-2.19727 -0.96679,-0.9668 -2.10937,-1.8457 -1.05469,-0.9668 -2.10938,-1.9336 -0.96679,-1.05468 -1.58203,-2.37304 -1.40625,-0.17579 -2.46094,-0.70313 -1.05468,-0.61523 -2.02148,-1.14258 -0.9668,-0.61523 -2.10938,-1.14258 -1.05468,-0.52734 -2.54882,-0.61523 -2.28516,-1.23047 -4.13086,-1.66992 -1.84571,-0.52735 -2.8125,-1.40625 z"
         style="font-size:90px;fill:#373a3c;fill-opacity:1"
         id="path4169" />
      <path
         d="m 209.875,492.71152 q -3.69141,-1.49414 -6.15234,-4.21875 -2.37305,-2.72461 -3.86719,-6.41601 0.8789,-2.37305 2.8125,-3.95508 1.93359,-1.66992 4.30664,-2.8125 2.46094,-1.14258 5.18555,-1.8457 2.72461,-0.70313 5.27343,-1.23047 0.52735,0.17578 0.52735,0 0,-0.17578 0.43945,0.17578 3.16406,-0.9668 7.29492,-1.8457 4.13086,-0.9668 8.78906,-0.70313 0.61524,-0.35156 1.49415,-0.35156 0.8789,-0.0879 1.8457,-0.0879 0.9668,0 1.8457,0 0.87891,-0.0879 1.49414,-0.35156 0.52735,0.61523 1.58203,0.79101 1.05469,0.0879 2.19727,0.87891 0.35156,0.0879 0,-0.26367 -0.35156,-0.43946 0.0879,-0.61524 1.14258,0 2.02148,0.52735 0.87891,0.52734 1.58204,1.23046 0.79101,0.61524 1.40625,1.14258 0.70312,0.52735 1.49414,0.52735 0.79101,0.96679 1.8457,1.8457 1.14258,0.79101 2.10937,1.66992 1.05469,0.87891 1.66993,1.93359 0.70312,1.05469 0.70312,2.37305 -0.0879,0.52735 0.35156,0.61524 0.43946,0.0879 0.61524,0.52734 0.0879,3.25195 -1.05469,5.625 -1.05469,2.37305 -2.72461,4.39453 -1.66992,1.93359 -3.60351,3.69141 -1.84571,1.75781 -3.42774,3.77929 1.05469,1.31836 2.37305,2.46094 1.40625,1.05469 2.8125,2.10938 1.40625,1.05468 2.63672,2.28515 1.31836,1.14258 2.19726,2.63672 0.26367,0.52735 1.14258,0.70313 0.26367,1.05468 0.70313,2.19726 0.52734,1.05469 0.96679,2.10938 0.43946,0.96679 0.52735,1.75781 0.0879,0.79102 -0.43946,1.31836 0.61524,0.35156 0.70313,1.14258 0.0879,0.70312 0,1.14258 -1.9336,2.37304 -2.63672,3.33984 -0.70313,0.9668 -1.05469,1.40625 -0.35156,0.43945 -0.70312,0.79101 -0.35157,0.35157 -1.58203,1.40625 -4.65821,2.8125 -9.75586,5.09766 -5.00977,2.19727 -10.45899,2.98828 -0.43945,0.61524 -1.31836,0.9668 -0.79101,0.43945 -1.8457,0.70312 -1.05469,0.26368 -2.28516,0.43946 -1.14258,0.17578 -2.10937,0.35156 -0.43946,-0.17578 -0.52735,-0.61523 0,-0.35157 -0.43945,-0.52735 -0.0879,1.05469 -0.9668,1.05469 -0.79101,0.0879 -2.02148,-0.35156 -1.23047,-0.43946 -2.54883,-1.23047 -1.31836,-0.79102 -2.28515,-1.49414 -0.43946,0.79101 -1.14258,1.66992 -0.61524,0.87891 -1.31836,1.23047 -1.23047,-0.17578 -1.84571,-0.26367 -0.52734,-0.0879 -1.05468,0.43945 -0.70313,-0.35156 -1.05469,-0.79102 -0.35156,-0.35156 -0.70313,-0.79101 -0.35156,-0.35156 -0.79101,-0.61524 -0.43945,-0.35156 -1.31836,-0.61523 0.17578,-0.43945 -0.26367,-1.31836 -0.43946,-0.9668 -1.23047,-1.14258 0.43945,-0.70312 -0.35156,-1.75781 -0.79102,-1.14258 -1.23047,-2.54883 0.0879,-0.61523 0.0879,-1.23047 0.0879,-0.70312 0.17578,-1.23047 0.17578,-0.61523 0.43945,-1.05468 0.26367,-0.43946 0.87891,-0.61524 -0.0879,-1.14258 -0.70313,-2.19726 0.79102,-0.61524 1.05469,-1.49414 0.26367,-0.9668 0.43945,-1.9336 0.26368,-0.9668 0.61524,-1.8457 0.35156,-0.9668 1.14258,-1.58203 -0.17578,-0.26367 -0.35157,-0.43946 -0.17578,-0.17578 -0.17578,-0.61523 1.31836,-2.19727 1.84571,-3.69141 0.52734,-1.58203 0.79101,-2.98828 0.35156,-1.49414 0.70313,-3.16406 0.35156,-1.66992 1.40625,-4.21875 -0.0879,-1.58203 0.35156,-2.8125 0.43945,-1.23047 0.87891,-2.37305 0.52734,-1.23047 0.79101,-2.54883 0.26367,-1.31835 -0.0879,-3.07617 -1.49414,0.17578 -2.19726,1.05469 -0.61524,0.87891 -0.79102,2.37305 -0.79102,0.70312 -2.02148,0.70312 -1.23047,-0.0879 -2.19727,0.26367 z m 38.67187,16.96289 q -3.33984,-1.8457 -6.15234,-2.19726 -2.72461,-0.35156 -5.27344,0.0879 -2.46093,0.35156 -4.74609,1.05469 -2.28516,0.70312 -4.57031,1.05468 -1.14258,2.98829 -2.37305,6.5918 -1.23047,3.60352 -2.37305,7.03125 3.16407,-0.43945 5.80078,-1.31836 2.63672,-0.8789 5.09766,-1.93359 2.46094,-1.14258 4.83399,-2.19727 2.37304,-1.14258 4.92187,-2.10937 0.26367,-1.05469 1.14258,-1.66992 0.8789,-0.61524 1.75781,-1.14258 0.87891,-0.61524 1.49414,-1.31836 0.61524,-0.70313 0.43945,-1.9336 z m -6.15234,-27.50976 q -5.44922,-0.17578 -10.72266,0.9668 -5.27343,1.14257 -8.87695,3.33984 1.75781,1.49414 3.60352,2.63672 1.93359,1.14258 2.90039,3.07617 4.21875,-1.66992 7.38281,-4.21875 3.16406,-2.63672 5.71289,-5.80078 z"
         style="font-size:90px;fill:#373a3c;fill-opacity:1"
         id="path4171" />
    </g>
  </g>
</svg>
